<svg xmlns="http://www.w3.org/2000/svg" viewBox="0 0 71.5 71.5"><defs><style>.cls-1{fill:#fff;stroke:#1d1d1b;stroke-miterlimit:10;stroke-width:0.75px;}.cls-2{fill:#231f20;}.cls-3{fill:#020202;}</style></defs><title>destech-logo</title><g id="Layer_2" data-name="Layer 2"><g id="Homepage"><circle class="cls-1" cx="35.75" cy="35.75" r="35.37"/><path class="cls-2" d="M19.83,42.13a2.51,2.51,0,0,1,2.67,2.73V48a2.51,2.51,0,0,1-2.67,2.73h-3v-8.6Zm1.48,5.71V45c0-1.17-.53-1.8-1.48-1.8H18v6.43h1.83C20.78,49.65,21.31,49,21.31,47.84Z"/><path class="cls-2" d="M25.88,43.73a2.35,2.35,0,0,1,2.55,2.54v1.4H24.48v.54c0,1.09.49,1.63,1.4,1.63a1.21,1.21,0,0,0,1.34-.93l1.06.28a2.28,2.28,0,0,1-2.4,1.66,2.35,2.35,0,0,1-2.54-2.54v-2A2.35,2.35,0,0,1,25.88,43.73Zm1.4,2.65c0-1.08-.47-1.64-1.4-1.64s-1.41.55-1.41,1.64v.39h2.81Z"/><path class="cls-2" d="M31.42,49.89c.9,0,1.32-.46,1.32-1v-.07c0-.69-.55-.89-1.49-1-1.19-.15-2.13-.65-2.13-1.89v-.22c0-1.13.74-1.93,2.29-1.93a2.14,2.14,0,0,1,2.35,1.62l-1,.31c-.08-.57-.45-1-1.3-1s-1.16.44-1.16,1v.06c0,.62.49.84,1.41,1,1.19.18,2.21.52,2.21,1.85v.29c0,1.11-.89,2-2.45,2a2.3,2.3,0,0,1-2.5-1.59L30,49A1.34,1.34,0,0,0,31.42,49.89Z"/><path class="cls-2" d="M33.08,43.21V42.13h5.77v1.08H36.56v7.52H35.37V43.21Z"/><path class="cls-2" d="M40.81,43.73a2.35,2.35,0,0,1,2.54,2.54v1.4H39.41v.54c0,1.09.49,1.63,1.4,1.63a1.22,1.22,0,0,0,1.34-.93l1.06.28a2.28,2.28,0,0,1-2.4,1.66,2.35,2.35,0,0,1-2.54-2.54v-2A2.35,2.35,0,0,1,40.81,43.73Zm1.4,2.65c0-1.08-.48-1.64-1.4-1.64s-1.41.55-1.41,1.64v.39h2.81Z"/><path class="cls-2" d="M46.76,50.85a2.35,2.35,0,0,1-2.54-2.54v-2a2.35,2.35,0,0,1,2.54-2.54,2.27,2.27,0,0,1,2.41,1.63l-1.07.31a1.21,1.21,0,0,0-1.34-.92c-.9,0-1.4.56-1.4,1.67v1.74c0,1.11.5,1.67,1.4,1.67a1.21,1.21,0,0,0,1.34-.92l1,.28A2.26,2.26,0,0,1,46.76,50.85Z"/><path class="cls-2" d="M50.9,41.73V44.5a2.37,2.37,0,0,1,1.7-.77c1.48,0,2.1.8,2.1,2.32v4.68H53.56V46.21c0-1-.3-1.47-1.19-1.47a2,2,0,0,0-1.48.85v5.14H49.76V41.89Z"/><polygon class="cls-3" points="30.22 29.44 35.66 29.44 32.94 24.87 30.22 29.44"/><path class="cls-3" d="M30.44,20.65l2.5,4.22h5.43l2.72,4.58h5l-5.22-8.8ZM41.35,29l-2.59-4.36-.13-.22H33.2l-2-3.34h9.4L45.31,29Z"/><path class="cls-3" d="M41.08,29.45,38.37,34h0l-2.72-4.58H30.22L32.94,34l-2.51,4.22H40.87l5.23-8.79ZM31,29.87H35.4l2.21,3.72H33.19Z"/></g></g></svg>