<svg xmlns="http://www.w3.org/2000/svg" xmlns:xlink="http://www.w3.org/1999/xlink" viewBox="0 0 542.45 387.4"><defs><style>.cls-1,.cls-10,.cls-16,.cls-19,.cls-2,.cls-21,.cls-22,.cls-25,.cls-3,.cls-37,.cls-7{fill:none;}.cls-1,.cls-2,.cls-3,.cls-4,.cls-7{stroke:#c0ccd8;}.cls-1,.cls-10,.cls-16,.cls-19,.cls-21,.cls-22,.cls-25,.cls-3,.cls-37{stroke-miterlimit:10;}.cls-2,.cls-23,.cls-4,.cls-7{stroke-linejoin:round;}.cls-3{stroke-width:3px;}.cls-24,.cls-4{fill:#fff;}.cls-5{fill:#ef6825;}.cls-6{fill:#c0ccd8;}.cls-7{stroke-linecap:round;}.cls-8{fill:#475577;}.cls-9{fill:#717a91;}.cls-10{stroke:#544943;stroke-width:1.5px;}.cls-11,.cls-31{opacity:0.45;}.cls-12,.cls-31{fill:#8e9db2;}.cls-13{fill:#ffcbbb;}.cls-14,.cls-23{fill:#e6e8ef;}.cls-15{fill:#b9b5b2;}.cls-16,.cls-23{stroke:#846a6a;}.cls-17{fill:#173789;}.cls-18{fill:#fca32d;}.cls-19{stroke:#ce680d;}.cls-20{fill:#ffb548;}.cls-21,.cls-22{stroke:#ed841b;}.cls-22{stroke-dasharray:3 2;}.cls-25{stroke:#ef977f;}.cls-26{fill:#8ebca2;}.cls-27{fill:#a2ccb6;}.cls-28{fill:#597f6e;}.cls-29{fill:#f2f5f9;}.cls-30{fill:#e7eaf2;}.cls-32{fill:#c6d2e0;}.cls-33{opacity:0.65;}.cls-34{opacity:0.55;}.cls-35{fill:url(#linear-gradient);}.cls-36{fill:#e8eaef;}.cls-37{stroke:#475577;stroke-width:2px;}</style><linearGradient id="linear-gradient" x1="201.64" y1="199.19" x2="201.64" y2="171.58" gradientUnits="userSpaceOnUse"><stop offset="0" stop-color="#fff" stop-opacity="0.1"/><stop offset="1" stop-color="#fff" stop-opacity="0.4"/></linearGradient></defs><title>notfound-404</title><g id="Layer_2" data-name="Layer 2"><g id="OBJECTS"><rect class="cls-1" x="157.41" y="22.33" width="123.75" height="74.75" rx="3.21"/><line class="cls-1" x1="157.41" y1="35.87" x2="281.16" y2="35.87"/><circle class="cls-1" cx="165.4" cy="29.18" r="1.98"/><path class="cls-1" d="M175.51,29.18a2,2,0,1,1-2-2A2,2,0,0,1,175.51,29.18Z"/><path class="cls-1" d="M183.65,29.18a2,2,0,1,1-2-2A2,2,0,0,1,183.65,29.18Z"/><rect class="cls-2" x="87.37" y="65.4" width="39.5" height="39.5" rx="5.12"/><circle class="cls-3" cx="107.12" cy="85.15" r="11.31"/><line class="cls-3" x1="114.76" y1="77.16" x2="98.78" y2="93.13"/><path class="cls-4" d="M388.75,95.91l-8.19-8.49H254.47a10.68,10.68,0,0,1-10.68-10.68V11.18A10.68,10.68,0,0,1,254.47.5H381.13a10.68,10.68,0,0,1,10.68,10.68v83.5A1.78,1.78,0,0,1,388.75,95.91Z"/><path class="cls-5" d="M294.47,58.11h-5.42v9.54H275.91V58.11H256.27V48.34l20.48-29.95h12.3V48.17h5.42Zm-18.56-9.94V42.45c0-1.08,0-2.53.12-4.37a28.13,28.13,0,0,1,.18-2.88h-.37a36.15,36.15,0,0,1-2.59,4.86l-5.46,8.11Z"/><path class="cls-5" d="M335.52,43.09q0,13.06-4.38,19.15t-13.41,6.08q-8.82,0-13.31-6.35t-4.48-18.88q0-13.14,4.38-19.27t13.41-6.14q8.79,0,13.29,6.39T335.52,43.09Zm-22.34,0q0,8.35,1.05,11.49t3.5,3.13c1.66,0,2.84-1.08,3.52-3.23s1-6,1-11.39-.35-9.28-1-11.47-1.87-3.29-3.51-3.29-2.81,1.06-3.5,3.17S313.18,37.47,313.18,43.09Z"/><path class="cls-5" d="M379.33,58.11h-5.42v9.54H360.77V58.11H341.13V48.34l20.48-29.95h12.3V48.17h5.42Zm-18.56-9.94V42.45c0-1.08,0-2.53.12-4.37a28.13,28.13,0,0,1,.18-2.88h-.37a36.15,36.15,0,0,1-2.59,4.86l-5.46,8.11Z"/><rect class="cls-2" x="502.44" y="180.41" width="39.5" height="39.5" rx="5.12"/><path class="cls-6" d="M534.93,211.25a1.27,1.27,0,0,1-.48.08H509.94a1.43,1.43,0,0,1-1.25-.72,1.41,1.41,0,0,1,0-1.43L520.94,188a1.45,1.45,0,0,1,1.25-.72,1.43,1.43,0,0,1,1.24.72l12.27,21.23a1.48,1.48,0,0,1,0,1.44A1.44,1.44,0,0,1,534.93,211.25Zm-24.32-1.74h23.17l-11.59-20.06Z"/><path class="cls-6" d="M522.19,205.29h0a.86.86,0,0,1-.86-.82l-.5-8.36a1.35,1.35,0,0,1,1.36-1.42h0a1.36,1.36,0,0,1,1.36,1.42l-.49,8.35A.86.86,0,0,1,522.19,205.29Z"/><path class="cls-6" d="M523.08,207.31a.89.89,0,1,1-.89-.88A.88.88,0,0,1,523.08,207.31Z"/><path class="cls-7" d="M5,149.33a2.23,2.23,0,1,1-2.23-2.23A2.22,2.22,0,0,1,5,149.33Z"/><path class="cls-7" d="M379.33,268.14a2.23,2.23,0,1,1-2.23-2.23A2.23,2.23,0,0,1,379.33,268.14Z"/><path class="cls-7" d="M532.46,85.15a2.23,2.23,0,1,1-2.23-2.23A2.23,2.23,0,0,1,532.46,85.15Z"/><path class="cls-7" d="M412.18,16.23A2.23,2.23,0,1,1,410,14,2.23,2.23,0,0,1,412.18,16.23Z"/><line class="cls-7" x1="528" y1="158.03" x2="528" y2="164.93"/><line class="cls-7" x1="531.45" y1="161.48" x2="524.55" y2="161.48"/><line class="cls-7" x1="347.62" y1="290.96" x2="347.62" y2="297.86"/><line class="cls-7" x1="351.07" y1="294.41" x2="344.16" y2="294.41"/><line class="cls-7" x1="201.68" y1="3.5" x2="201.68" y2="10.4"/><line class="cls-7" x1="205.13" y1="6.95" x2="198.23" y2="6.95"/><line class="cls-7" x1="47.21" y1="70.2" x2="47.21" y2="77.1"/><line class="cls-7" x1="50.66" y1="73.65" x2="43.76" y2="73.65"/><line class="cls-7" x1="35.98" y1="229.07" x2="35.98" y2="235.97"/><line class="cls-7" x1="39.43" y1="232.52" x2="32.53" y2="232.52"/><line class="cls-7" x1="427.13" y1="42.57" x2="427.13" y2="49.47"/><line class="cls-7" x1="430.58" y1="46.02" x2="423.68" y2="46.02"/><path class="cls-1" d="M87.32,189.78h-69a2.18,2.18,0,0,1-2.19-2.18h0a2.18,2.18,0,0,1,2.19-2.18H87.32a2.18,2.18,0,0,1,2.18,2.18h0A2.18,2.18,0,0,1,87.32,189.78Z"/><path class="cls-1" d="M493.88,134.64H424.83a2.17,2.17,0,0,1-2.18-2.18h0a2.17,2.17,0,0,1,2.18-2.18h69.05a2.17,2.17,0,0,1,2.18,2.18h0A2.17,2.17,0,0,1,493.88,134.64Z"/><path class="cls-6" d="M504,149.33H478.46a1.09,1.09,0,0,1-1.09-1.1h0a1.09,1.09,0,0,1,1.09-1.09H504a1.09,1.09,0,0,1,1.09,1.09h0A1.09,1.09,0,0,1,504,149.33Z"/><path class="cls-6" d="M436.44,97.29H410.92a1.09,1.09,0,0,1-1.1-1.09h0a1.09,1.09,0,0,1,1.1-1.09h25.52a1.09,1.09,0,0,1,1.09,1.09h0A1.09,1.09,0,0,1,436.44,97.29Z"/><path class="cls-6" d="M61.65,170.48H42.13A1.09,1.09,0,0,1,41,169.39h0a1.08,1.08,0,0,1,1.09-1.09H61.65a1.09,1.09,0,0,1,1.1,1.09h0A1.09,1.09,0,0,1,61.65,170.48Z"/><rect class="cls-2" x="452.07" y="45.57" width="28.54" height="28.54" rx="3.7" transform="translate(932.67 119.67) rotate(180)"/><path class="cls-6" d="M470.38,58.63l-.5,2.45h2.73v2.18h-3.14l-.82,4.29h-2.32l.82-4.29h-3l-.8,4.29h-2.27l.78-4.29h-2.52V61.08h2.93l.5-2.45h-2.66V56.42h3.05l.81-4.3h2.32l-.82,4.3h3l.82-4.3h2.27l-.82,4.3h2.53v2.21Zm-5.82,2.45h3l.49-2.45h-3Z"/><path class="cls-8" d="M226,271.54,206,140.05h-90.3l21.64,139.34a18.89,18.89,0,0,0,19.06,16.09H308.2l1.12-12.77H239.2A13.07,13.07,0,0,1,226,271.54Z"/><path class="cls-9" d="M140.55,271.54l-19.3-126.62a5.7,5.7,0,0,0-5.75-4.87h-.18a7,7,0,0,0-6.86,7.85l20.43,131.49A18.89,18.89,0,0,0,148,295.48h97.79l1.12-12.77H153.73A13.07,13.07,0,0,1,140.55,271.54Z"/><line class="cls-10" x1="201.68" y1="295.48" x2="201.68" y2="367.25"/><path class="cls-10" d="M161.44,373.59h0a6.34,6.34,0,0,1,6.34-6.34h67.79a6.34,6.34,0,0,1,6.34,6.34h0"/><path class="cls-10" d="M194.74,373.59h0a6.34,6.34,0,0,1,6.34-6.34"/><path class="cls-9" d="M167.84,380a6.4,6.4,0,1,1-6.4-6.4A6.4,6.4,0,0,1,167.84,380Z"/><g class="cls-11"><path class="cls-12" d="M163.79,380a2.35,2.35,0,1,1-2.35-2.35A2.36,2.36,0,0,1,163.79,380Z"/></g><path class="cls-9" d="M201.14,380a6.4,6.4,0,1,1-6.4-6.4A6.4,6.4,0,0,1,201.14,380Z"/><g class="cls-11"><path class="cls-12" d="M197.09,380a2.35,2.35,0,1,1-2.35-2.35A2.36,2.36,0,0,1,197.09,380Z"/></g><path class="cls-9" d="M248.31,380a6.4,6.4,0,1,1-6.4-6.4A6.4,6.4,0,0,1,248.31,380Z"/><g class="cls-11"><path class="cls-12" d="M244.26,380a2.35,2.35,0,1,1-2.35-2.35A2.36,2.36,0,0,1,244.26,380Z"/></g><path class="cls-13" d="M272.25,154.16,295.14,120l7.09,1.48c-5.42,18.25-9,25.47-9,25.47"/><path class="cls-13" d="M298.58,127.11l3.65-5.66s6.79-1.57,9.26-2.82a10.27,10.27,0,0,0,4.8-5.38c.52-1.45.3-5.69-.32-5.76-1.46-.16-4.37,5.28-5.74,5.6s-5.78,0-8.21.31a8,8,0,0,0-5.82,4.37l-3.74,6.78"/><polyline class="cls-14" points="287.21 129.98 291.23 124.16 301.62 128.82 298.32 137.67"/><path class="cls-15" d="M203.71,117.79s16.94-7.79,31.87,5.49,25,25.61,30.51,29.6L288.57,127l12.56,5.89c-3.31,18.74-12.6,48.61-35.35,51.69-24.61,3.33-60.69-27-60.69-27"/><line class="cls-16" x1="258.79" y1="161.48" x2="266.09" y2="152.88"/><path class="cls-17" d="M294.74,375.58l-1.9,7.31a2.81,2.81,0,0,0,2.71,3.51h22.14A2.41,2.41,0,0,0,320.1,384h0a2.4,2.4,0,0,0-1.67-2.29l-15.14-6.11"/><path class="cls-13" d="M282,261.44c-3.53,37.15,12.76,114.14,12.76,114.14s3.87,4.68,8.55,0c0,0,3.93-73.4,8.07-106.41"/><path class="cls-18" d="M229.17,217.93l25.4,13.32v.26s51.86-3.48,59.7,15c12.28,29,14.37,123.27,14.37,123.27H290.69s-14.13-79.19-19-84-24.74-4.47-61.35-4.47c-41.13,0-21.06-53-5.74-57.58"/><path class="cls-19" d="M293.32,369.81S282,288.1,273.75,282.1c-10.12-7.31-57.92-2.53-57.92-2.53"/><path class="cls-17" d="M215.16,375.58l-1.9,7.31A2.81,2.81,0,0,0,216,386.4h22.14a2.41,2.41,0,0,0,2.41-2.42h0a2.4,2.4,0,0,0-1.67-2.29l-15.14-6.11"/><path class="cls-13" d="M218.85,261.44c-3.54,37.15-3.69,114.14-3.69,114.14s3.87,4.68,8.55,0c0,0,13.32-73.4,17.46-106.41"/><path class="cls-20" d="M184.35,229.59s66.65,1.08,75.37,21.27c10.72,24.84-7,119-7,119H212.59v-84.2a3,3,0,0,0-2.91-3.05c-5.56.15-18,.15-33.74.15-41.13,0-21.05-64-5.74-68.56"/><path class="cls-19" d="M184.35,229.59s66.65,1.08,75.37,21.27c2.9,6.73,4.41,18.19,3.64,31.85"/><path class="cls-21" d="M218.19,369.81s.41-84.52-1.53-89c-2.7-6.27-11.91-3.19-33.27-3.19-41.13,0-24.38-58.88-9.06-63.43"/><path class="cls-21" d="M158.74,239.88s21.12.51,24.32-2.68,0-17.71,0-17.71"/><path class="cls-22" d="M158.22,242.72s24.11.51,27.76-2.7,0-17.72,0-17.72"/><path class="cls-15" d="M154.15,141.61s-5.06,89.9,2.6,89.9,92.83-.26,97.82-.26-6.69-76.88-23.51-93.12c0,0-24.95-27.07-35.94-24.48S154.15,141.61,154.15,141.61Z"/><line class="cls-16" x1="249.17" y1="182.5" x2="238.59" y2="139.15"/><path class="cls-13" d="M111.07,157.89,88.18,123.7l-7.09,1.48c5.42,18.25,9,25.47,9,25.47"/><path class="cls-13" d="M84.74,130.84l-3.65-5.66s-6.79-1.57-9.26-2.83A10.25,10.25,0,0,1,67,117c-.52-1.45-.29-5.7.32-5.76,1.46-.16,4.38,5.28,5.74,5.6s5.78,0,8.21.31a8,8,0,0,1,5.82,4.37l3.75,6.78"/><polyline class="cls-14" points="96.11 133.71 92.09 127.89 81.7 132.55 85 141.4"/><path class="cls-15" d="M185.63,118.31s-16.75-11.91-34,2.72c-16.12,13.63-26.85,41.14-30.46,41.14-2.5,0-18-19.78-27.27-31.89l-11,5.89c6.94,21.19,22.07,57.24,44.71,57.24,17.77,0,54.24-41.61,54.24-41.61"/><line class="cls-16" x1="152.69" y1="180.1" x2="179.69" y2="157.59"/><polyline class="cls-23" points="187.24 120.43 203.33 137.67 205.44 117.74"/><path class="cls-13" d="M200.16,103l4.53,9.93s1.82,5.68-5.72,8.26a12.6,12.6,0,0,1-13.34-2.9l-1.2-15.57"/><path class="cls-24" d="M185.19,112.64s6,7.46,13.78,8.57l-5.68,8.42C188.68,127,183.06,117,183.06,117Z"/><path class="cls-24" d="M204.22,111.58a20.18,20.18,0,0,1-5.25,9.63l6.47,4.89c1.49-3.66,1.31-9.36,1.31-9.36Z"/><path class="cls-13" d="M206.87,87s4.27,16.37-2.14,20.5-17.58-2.15-18.22-4.21-3.56-19.52.63-20.83C194.58,80.13,204.69,80,206.87,87Z"/><path class="cls-17" d="M206.73,92.31a.83.83,0,1,1-1.62.38.83.83,0,1,1,1.62-.38Z"/><path class="cls-17" d="M205.3,87.44c.29,0,1.54.17,1.28.79-.12.27-.56.27-.8.25a2.13,2.13,0,0,0-.76,0,1.13,1.13,0,0,1,.16.26c.07.18-.55.2-.62.2a3.43,3.43,0,0,0-2.11.39A2.79,2.79,0,0,1,205.3,87.44Z"/><path class="cls-17" d="M196.45,94.58a.82.82,0,0,0,.88.78.84.84,0,0,0,.79-.88.84.84,0,0,0-1.67.1Z"/><path class="cls-17" d="M194,91.27c-.61.33-1.11.77-1,1.27s.5.29.74.1a4.53,4.53,0,0,1,1.37-.73.91.91,0,0,0-.33.75,3.54,3.54,0,0,0,3.08-3.06,5.79,5.79,0,0,1-1.16.81C195.83,90.81,194.85,90.8,194,91.27Z"/><path class="cls-25" d="M202.58,93.29S204.85,99,204,99.53s-3.67.43-3.67.43"/><path class="cls-25" d="M202.66,108.45a13.09,13.09,0,0,1-12.21-2"/><path class="cls-25" d="M199,104.61s.58-2.53,4.74-2.53"/><path class="cls-17" d="M210.49,78.22a3.48,3.48,0,0,0-.73-2.17,3.35,3.35,0,0,0-2.49-.79,15.07,15.07,0,0,0-8.82,2.81l2.1-1.82c.55-.48,1.79-1.24,1.19-2.13s-2-.34-2.77-.35c-3.58,0-7,1.23-10.33,2.49a26.74,26.74,0,0,0-4.73,2.19,9,9,0,0,0-3.49,3.79,10.81,10.81,0,0,0-.73,4.48,54.86,54.86,0,0,0,.88,8.17c.47,3,1.17,8.78,5.14,9.13a3.24,3.24,0,0,0,2.24-.34,2.82,2.82,0,0,0,.92-2,10.26,10.26,0,0,0-.23-3.7c.74.41,1.45,1.08,2.28,1a.77.77,0,0,0,.65-.45,1.06,1.06,0,0,0,0-.53c-.31-2.83-.48-5.64-.66-8.48q6.09-1.29,12.25-2.22c1.82-.27,3.74-.57,5.15-1.75C210.37,83.81,210.71,80.84,210.49,78.22Z"/><path class="cls-13" d="M189.51,99.07c-.67-1.67-1.85-3.67-3.69-2.54a3.55,3.55,0,0,0-1.27,2.08c-.85,2.74,1.12,7,3.82,6.59,1.32-.19,2-1.75,2.58-3"/><path class="cls-26" d="M434.67,277.72A32.56,32.56,0,0,1,456.09,247c2.32-.86,13.45-1.7,13.45-1.7s-1.3,8.49-3.52,12.77c-5.16,10-15.38,18.37-31.35,19.65"/><path class="cls-27" d="M467.39,303.06a27.09,27.09,0,0,1,34.53-6.34.77.77,0,0,1,.42.43.75.75,0,0,1-.28.65,25.15,25.15,0,0,1-20.91,8.14,91.17,91.17,0,0,1-13.76-2.88"/><path class="cls-26" d="M476.33,289.52c0-7.77,2.59-14.74,7.15-19.3a21.46,21.46,0,0,1,18-5.86,1,1,0,0,1,.67.28,1.27,1.27,0,0,1,.21.89c-.4,9.35-5.08,17.09-12.23,20.2a71.47,71.47,0,0,1-13.79,3.79"/><path class="cls-27" d="M488.39,275.63a65.57,65.57,0,0,1,11.1-13.47,27.94,27.94,0,0,1,5.6-4.21c6.69-3.6,14.95-2.48,22.14-.05-2.86,5.43-6.59,10.75-12.08,13.5a33.11,33.11,0,0,1-7.74,2.47c-5.27,1.17-13.67,1.06-19,1.76"/><path class="cls-26" d="M484.57,262.66c-13.38-7-15.36-21.63-15.7-27-.21-3.39,0-7.16,2.83-9.6,16.59,5.84,20.82,17.06,12.87,36.64"/><path class="cls-26" d="M426.9,260.55c1-7.12,2-14.77-1.24-21.2a25.48,25.48,0,0,0-4.61-6.18C416.7,228.69,411,225,404.76,225A28.45,28.45,0,0,0,424.1,256.8"/><path class="cls-27" d="M465.82,307.12a28.92,28.92,0,0,1-17.64-38.26,1.22,1.22,0,0,1,.64-.79,1.24,1.24,0,0,1,.93.23c11.55,6.64,19.44,25.94,16.07,38.82"/><path class="cls-27" d="M434.45,267.79a28.28,28.28,0,0,1,13-34c2.34-1.3,4.9-2.28,7-4a65,65,0,0,1,1.42,9.51,27.77,27.77,0,0,1-.6,9.45c-2.18,7.91-9.47,13.28-16.79,17"/><path class="cls-27" d="M424.78,266.59c-12,1.46-26.81-3.39-33.23-14.71,20.54-10.45,33.23,5.53,33.23,14.71"/><path class="cls-27" d="M431.8,293.41c-2.7-9.23-9.79-16.8-18.33-19.57a26.22,26.22,0,0,0-25.2,5.47,1.3,1.3,0,0,0-.57,1,1.28,1.28,0,0,0,.28.64c4.59,6.64,11.92,10.56,19.41,12.21s15.23,1.26,22.86.69"/><path class="cls-28" d="M416.35,244.2c6.23,6.22,10.12,14.13,13,22.35a187.64,187.64,0,0,1,6.95,26.18c3.69,18.67,4.66,37.57,6.81,56.43,0,.27.44.28.43,0a369.44,369.44,0,0,0-6.71-57.54,171.73,171.73,0,0,0-7.58-27.18c-2.9-7.58-6.79-14.81-12.72-20.45-.13-.13-.34.08-.2.21Z"/><path class="cls-28" d="M438.45,301.15c-4.62-7.47-12.27-11.89-20.21-15.12-8.88-3.61-18.95-5.87-28.59-5.22a.18.18,0,0,0,0,.36c17.53.79,37.59,5,48.37,20.23.18.25.59,0,.43-.25Z"/><path class="cls-28" d="M434.81,283.6c-.08-7-.81-14.09.57-21.06a44.61,44.61,0,0,1,7.75-17.69.16.16,0,0,0-.26-.2c-9.41,10.57-9.52,25.69-8.29,39a.12.12,0,0,0,.23,0Z"/><path class="cls-28" d="M406.92,255.74c5.14.64,9.69,4.1,13.57,7.29s7.33,6.83,11.19,10c.16.13.38-.08.23-.23a132.61,132.61,0,0,0-12.42-11c-3.66-2.82-7.84-5.71-12.57-6.15-.06,0-.06.09,0,.1Z"/><path class="cls-28" d="M461.14,324.73c2.81-14.63,8.7-28,18.46-39.37A81.4,81.4,0,0,1,495.7,271c6.27-4.26,13-7.16,20-9.82.29-.11.18-.55-.12-.47-14.2,3.7-27.27,13.51-36.64,24.55s-16.44,25-18.18,39.46c0,.2.33.25.37.05Z"/><path class="cls-28" d="M477.39,237.35c7,14.8,9.64,31.58,2.52,46.81-.14.3.27.56.45.27,8.55-14.23,4.4-33.37-2.61-47.29-.12-.24-.47,0-.36.21Z"/><path class="cls-29" d="M486.55,315v11.72c0,46.45-12.24,59.67-12.24,59.67H436.44s-12.23-13.22-12.23-59.67V315Z"/><line class="cls-10" x1="79.87" y1="386.4" x2="111.98" y2="232.41"/><line class="cls-10" x1="144.1" y1="386.4" x2="111.98" y2="232.41"/><line class="cls-10" x1="404.24" y1="386.4" x2="436.36" y2="232.41"/><line class="cls-10" x1="468.47" y1="386.4" x2="436.36" y2="232.41"/><rect class="cls-30" x="80.91" y="223.19" width="383.62" height="9.21"/><path class="cls-8" d="M446,205.63H310.47a3.87,3.87,0,0,1-3.82-4.56l15.57-87.62a5.82,5.82,0,0,1,5.73-4.79H463.51a3.88,3.88,0,0,1,3.83,4.56l-15.58,87.62A5.8,5.8,0,0,1,446,205.63Z"/><path class="cls-6" d="M449.19,205.63H313.62a3.87,3.87,0,0,1-3.82-4.56l15.57-87.62a5.82,5.82,0,0,1,5.73-4.79H466.66a3.88,3.88,0,0,1,3.83,4.56l-15.58,87.62A5.8,5.8,0,0,1,449.19,205.63Z"/><path class="cls-31" d="M424.25,205.63H346a2.24,2.24,0,0,1-2.21-2.63l9-50.61a3.37,3.37,0,0,1,3.31-2.77h78.3a2.25,2.25,0,0,1,2.21,2.64l-9,50.6A3.34,3.34,0,0,1,424.25,205.63Z"/><path class="cls-32" d="M426.12,205.63h-78.3a2.25,2.25,0,0,1-2.21-2.63l9-50.61a3.37,3.37,0,0,1,3.31-2.77h78.3a2.25,2.25,0,0,1,2.21,2.64l-9,50.6A3.36,3.36,0,0,1,426.12,205.63Z"/><rect class="cls-12" x="376.99" y="175.87" width="31.78" height="29.76"/><path class="cls-8" d="M407,175.87H377v8.55l8.18,33.94H417Zm-7.69,33.44c-3.56,0-7.33-4.16-8.41-9.28s.92-9.28,4.48-9.28,7.33,4.16,8.41,9.28S402.82,209.31,399.26,209.31Z"/><path class="cls-8" d="M359.46,218.36h71.19v4.83h-76A4.83,4.83,0,0,1,359.46,218.36Z"/><rect class="cls-6" x="373.74" y="218.36" width="56.91" height="4.83"/><path class="cls-6" d="M408.79,175.87H377l10,42.49H418.8ZM401,209.31c-3.56,0-7.33-4.16-8.41-9.28s.93-9.28,4.49-9.28,7.32,4.16,8.41,9.28S404.54,209.31,401,209.31Z"/><g class="cls-33"><polygon class="cls-12" points="334.54 117.28 332.65 127.88 334.54 127.88 336.42 117.28 334.54 117.28"/><polygon class="cls-12" points="339.99 117.28 338.1 127.88 339.99 127.88 341.87 117.28 339.99 117.28"/><polygon class="cls-12" points="345.44 117.28 343.55 127.88 345.44 127.88 347.32 117.28 345.44 117.28"/><polygon class="cls-12" points="350.88 117.28 349 127.88 350.88 127.88 352.77 117.28 350.88 117.28"/><polygon class="cls-12" points="356.33 117.28 354.45 127.88 356.33 127.88 358.22 117.28 356.33 117.28"/></g><g class="cls-33"><polygon class="cls-12" points="406.06 117.28 404.18 127.88 406.06 127.88 407.95 117.28 406.06 117.28"/><polygon class="cls-12" points="411.79 117.28 409.91 127.88 411.79 127.88 413.68 117.28 411.79 117.28"/><polygon class="cls-12" points="417.52 117.28 415.64 127.88 417.52 127.88 419.4 117.28 417.52 117.28"/><polygon class="cls-12" points="423.25 117.28 421.36 127.88 423.25 127.88 425.13 117.28 423.25 117.28"/><polygon class="cls-12" points="428.97 117.28 427.09 127.88 428.97 127.88 430.86 117.28 428.97 117.28"/><polygon class="cls-12" points="434.7 117.28 432.82 127.88 434.7 127.88 436.58 117.28 434.7 117.28"/><polygon class="cls-12" points="440.43 117.28 438.55 127.88 440.43 127.88 442.31 117.28 440.43 117.28"/><polygon class="cls-12" points="446.15 117.28 444.27 127.88 446.15 127.88 448.04 117.28 446.15 117.28"/><polygon class="cls-12" points="451.88 117.28 450 127.88 451.88 127.88 453.76 117.28 451.88 117.28"/><polygon class="cls-12" points="457.61 117.28 455.73 127.88 457.61 127.88 459.49 117.28 457.61 117.28"/></g><g class="cls-34"><path class="cls-35" d="M189,199.19a2.31,2.31,0,0,0,1.24-.67c.74-1-.49-2.12-1.29-2.63-1-.66-2.44-.88-2.94-2.14-.56-1.43.41-3,1.59-3.78a16.27,16.27,0,0,1,3.26-1.4A6.33,6.33,0,0,0,194,186.2c.9-1.44.72-3.31.84-4.94.46-6.38,7-9.54,12.48-9.67,2.75-.07,6.95.92,8.78,3a5.53,5.53,0,0,1,1.25,2.5,4.51,4.51,0,0,1-1.22,3.84,42,42,0,0,1-3.27,2.68c-1.07,1-.31,2.06-.55,3.26s-1.16,1.9-2.32,2.54c-2.44,1.36-5.31,1.7-8,2.44a6.31,6.31,0,0,0-2.33,1,12.83,12.83,0,0,0-2,2.64,8.29,8.29,0,0,1-5,3.2"/></g><path class="cls-36" d="M204.25,215.25H199v-2.48h5.21a3.06,3.06,0,0,0,3.05-3.05v-4.28a3.06,3.06,0,0,0-3.05-3.05H199v-2.48h5.21a5.54,5.54,0,0,1,5.54,5.53v4.28A5.54,5.54,0,0,1,204.25,215.25Z"/><path class="cls-36" d="M181.91,196.38h21a0,0,0,0,1,0,0v19.29a6.12,6.12,0,0,1-6.12,6.12H188a6.12,6.12,0,0,1-6.12-6.12V196.38A0,0,0,0,1,181.91,196.38Z"/><path class="cls-32" d="M178.51,218.25s.2,4.94,7.89,4.94h12.06c7.69,0,7.89-4.94,7.89-4.94Z"/><rect class="cls-8" x="236.27" y="221.22" width="111.28" height="1.98"/><rect class="cls-8" x="240.07" y="219.62" width="7.97" height="1.59"/><rect class="cls-8" x="252.14" y="219.62" width="7.97" height="1.59"/><rect class="cls-8" x="264.21" y="219.62" width="7.97" height="1.59"/><rect class="cls-8" x="276.28" y="219.62" width="7.97" height="1.59"/><rect class="cls-8" x="288.36" y="219.62" width="7.97" height="1.59"/><rect class="cls-8" x="300.43" y="219.62" width="7.97" height="1.59"/><rect class="cls-8" x="312.5" y="219.62" width="7.97" height="1.59"/><rect class="cls-8" x="324.57" y="219.62" width="7.97" height="1.59"/><rect class="cls-8" x="336.64" y="219.62" width="7.97" height="1.59"/><rect class="cls-6" x="237.72" y="221.22" width="111.28" height="1.98"/><rect class="cls-6" x="241.53" y="219.62" width="7.97" height="1.59"/><rect class="cls-6" x="253.6" y="219.62" width="7.97" height="1.59"/><rect class="cls-6" x="265.67" y="219.62" width="7.97" height="1.59"/><rect class="cls-6" x="277.74" y="219.62" width="7.97" height="1.59"/><rect class="cls-6" x="289.81" y="219.62" width="7.97" height="1.59"/><rect class="cls-6" x="301.88" y="219.62" width="7.97" height="1.59"/><rect class="cls-6" x="313.95" y="219.62" width="7.97" height="1.59"/><rect class="cls-6" x="326.03" y="219.62" width="7.97" height="1.59"/><rect class="cls-6" x="338.1" y="219.62" width="7.97" height="1.59"/><path class="cls-26" d="M79.38,297.84a24.3,24.3,0,0,0-13.66-28.12c-2.11-.94-4.37-1.59-6.28-2.89a56.86,56.86,0,0,0-.51,8.25,24.25,24.25,0,0,0,1.22,8c2.44,6.61,9.08,10.67,15.62,13.29"/><path class="cls-28" d="M80.18,315.56c.2-12.79.37-27.39-9.69-36.91a.17.17,0,0,0-.24.24A36.22,36.22,0,0,1,79,297.37c.84,6,.51,12.13,1,18.19a.12.12,0,0,0,.23,0Z"/><path class="cls-26" d="M63.83,332.33a28.47,28.47,0,0,0-11.36-19.21,28.2,28.2,0,0,0-10.24-4.63c-2.07-.47-11.64,0-11.64,0s2,7.1,4.38,10.5c5.49,7.94,15.11,14,28.86,13.32"/><path class="cls-27" d="M55.46,307.89A53.51,53.51,0,0,0,53,294.37a22.41,22.41,0,0,0-2.21-5c-3.16-5-9.08-7.37-14.77-8.4-.07,4.84.49,9.94,3.15,13.92a26.06,26.06,0,0,0,4.27,4.63c3.09,2.8,8.74,5.9,12.06,8.4"/><path class="cls-27" d="M87.76,291.16c-.89-6.12-1.71-12.69,1.07-18.21a22,22,0,0,1,4-5.3c3.74-3.85,8.63-7,14-7a24.72,24.72,0,0,1-3.22,16.76c-3,5-10.28,12-15.81,13.79"/><path class="cls-27" d="M77.94,326.7a21.34,21.34,0,0,0,25.46-17.87.68.68,0,0,0-.79-.94c-9.84-.05-22,9.34-24.67,18.81"/><path class="cls-27" d="M57.71,304.58C65.81,300,71,290.89,71.17,281c-5.85-.32-10.25,3.28-12.8,6.38-3.55,4.32-3.85,11.9-.66,17.24"/><path class="cls-27" d="M63.59,320.61a17.9,17.9,0,0,1,16.52-24.56.77.77,0,0,1,.66.22.83.83,0,0,1,.1.41c.22,5-2,9.83-5.11,13.7s-7.18,6.89-11.23,9.78"/><path class="cls-28" d="M96.64,276.93c-10.79,10.25-14.57,26.69-17.43,40.74a305.11,305.11,0,0,0-5.78,49.6c0,.29.39.27.43,0,1.93-16.19,2.7-32.44,5.87-48.49,2.84-14.31,6.47-30.94,17.12-41.65.13-.13-.07-.33-.21-.2Z"/><path class="cls-28" d="M63.58,329.18a52.16,52.16,0,0,1,1.75-13.95c0-.19-.23-.33-.33-.14-2,3.93-2.62,9.83-1.9,14.15,0,.28.49.21.48-.06Z"/><path class="cls-28" d="M64.26,287.82C57.78,293.69,56.13,306,58.77,314a.16.16,0,0,0,.31-.08c-1.91-8.32-1.28-19.63,5.25-26a.05.05,0,0,0-.07-.08Z"/><path class="cls-28" d="M66.62,357.36A112.7,112.7,0,0,0,62,323.42c-3.06-10.67-8-22.24-16.11-30.07-.23-.23-.54.1-.34.34a83.37,83.37,0,0,1,9.67,14.09,86.67,86.67,0,0,1,6.42,16.53c3.07,10.87,3.93,21.84,4.6,33.05a.19.19,0,0,0,.38,0Z"/><path class="cls-29" d="M99.7,337.7v8c0,31.69-10.5,40.71-10.5,40.71H56.66s-10.5-9-10.5-40.71v-8Z"/><line class="cls-37" x1="28.29" y1="386.4" x2="538.74" y2="386.4"/></g></g></svg>